Coordinates
version=1
nRows=13
nColumns=34
inDegrees=yes

Units are S.I. units (second, meters, Newtons, ...)
If the header above contains a line with 'inDegrees', this indicates whether rotational values are in degrees (yes) or radians (no).

endheader
time	pelvis_tilt	pelvis_list	pelvis_rotation	pelvis_tx	pelvis_ty	pelvis_tz	hip_flexion_r	hip_adduction_r	hip_rotation_r	knee_angle_r	ankle_angle_r	subtalar_angle_r	mtp_angle_r	hip_flexion_l	hip_adduction_l	hip_rotation_l	knee_angle_l	ankle_angle_l	subtalar_angle_l	mtp_angle_l	lumbar_extension	lumbar_bending	lumbar_rotation	arm_flex_r	arm_add_r	arm_rot_r	elbow_flex_r	pro_sup_r	arm_flex_l	arm_add_l	arm_rot_l	elbow_flex_l	pro_sup_l
      1.45000000	     -0.73126234	      1.48021965	      6.30434471	      0.00523960	      1.30533546	     -0.07614535	     -3.58924671	      0.68339568	     -0.32244296	      0.00000000	      6.41222054	     -7.06706795	      0.00000000	     -2.32334422	      1.93499436	      6.23771881	      3.86470661	      5.27798268	     -3.07088220	      0.00000000	     -1.69244146	      0.22913269	     -1.70183871	      1.01830414	    -10.64716993	     11.69319452	    108.52745243	     82.30314676	     -1.80246864	    -11.07463703	     14.74082811	     98.61588867	     83.55127053
      1.46666670	     -0.71038170	      1.49550838	      6.30781899	      0.00442350	      1.31061110	     -0.07546665	     -3.62085101	      0.64518094	     -0.35625727	      0.00000000	      6.51916757	     -6.87069693	      0.00000000	     -2.43528721	      1.95145822	      6.27970323	      3.70725347	      5.17307226	     -2.90046832	      0.00000000	     -1.84040599	      0.27444494	     -1.80191244	      2.94197424	    -11.10830959	     14.55745492	    109.56941519	     82.53128739	      1.19735966	    -11.35200878	     17.03326743	     97.75217940	     83.85837250
      1.48333330	     -0.71504309	      1.55172512	      6.41606929	      0.00664554	      1.31406172	     -0.07587849	     -3.71152306	      0.59223419	     -0.47242560	      0.00000000	      6.33066476	     -6.71270590	      0.00000000	     -2.45414362	      2.00016734	      6.15425421	      3.76044957	      4.83518331	     -2.71585438	      0.00000000	     -2.02700855	      0.21638336	     -2.14629288	      4.31657307	    -11.17029838	     17.21749056	    111.26152704	     82.78283690	      3.56801592	    -11.30418127	     18.72917244	     96.90247910	     84.01164818
      1.50000000	     -0.68586887	      1.52621019	      6.38715094	      0.00749089	      1.31433718	     -0.07637198	     -3.82815546	      0.63887938	     -0.52358181	      0.00000000	      6.17368569	     -6.51689603	      0.00000000	     -2.59606746	      1.98817160	      6.04755869	      3.65710975	      4.67362609	     -2.55939435	      0.00000000	     -2.22856901	      0.31516553	     -1.92868715	      5.63228829	    -11.67438020	     20.57048239	    113.49171811	     83.12809608	      5.70038562	    -11.18636881	     20.73971270	     96.66955826	     84.12155204
      1.51666670	     -0.57712671	      1.53258194	      6.34693856	      0.01039606	      1.31251759	     -0.07514301	     -4.06590345	      0.69199694	     -0.54227635	      0.00000000	      6.09626437	     -6.30355173	      0.00000000	     -2.89928738	      1.93337801	      5.97803127	      3.47705496	      4.41736172	     -2.41412613	      0.00000000	     -2.39584165	      0.28101788	     -1.53783947	      7.07171536	    -12.05136474	     23.87743735	    115.74887509	     83.53933550	      7.51220762	    -11.10578987	     22.88442449	     97.04905385	     84.14380299
      1.53333330	     -0.59452763	      1.54045801	      6.27743795	      0.00882540	      1.31041534	     -0.07410950	     -4.13771214	      0.72183459	     -0.52292463	      0.00000000	      5.98268592	     -6.05228750	      0.00000000	     -2.91534308	      1.92681906	      5.61562996	      3.56049863	      4.23022969	     -2.43897865	      0.00000000	     -2.47848290	      0.27015570	     -1.33063437	      8.47497860	    -12.09909084	     26.95081415	    117.89304801	     83.93028524	      9.09146707	    -10.96010067	     24.92390198	     98.03824831	     84.12149724
      1.55000000	     -0.53478476	      1.49781901	      6.22380422	      0.00588706	      1.30545434	     -0.07432946	     -4.22359090	      0.80409955	     -0.57302082	      0.00000000	      5.98119999	     -6.04861199	      0.00000000	     -2.95942939	      1.86660913	      5.41021035	      3.62447736	      4.30852894	     -2.61127307	      0.00000000	     -2.63970442	      0.22819348	     -1.19731842	     10.25653582	    -12.14686160	     29.96228162	    119.84983784	     84.36616037	     10.98003268	    -10.88791797	     27.24660881	     99.62937646	     84.06546536
      1.56666670	     -0.60805865	      1.49523421	      6.10513034	      0.00490199	      1.30325663	     -0.07316384	     -4.11404218	      0.82766154	     -0.51351652	      0.00000000	      5.91336193	     -6.01986167	      0.00000000	     -2.84035612	      1.85051490	      5.11122993	      3.64748974	      4.21048918	     -2.86823007	      0.00000000	     -2.58640539	      0.11532815	     -0.85705135	     12.11714148	    -11.93403125	     32.20875692	    120.91501251	     84.75214704	     12.70214220	    -10.66206417	     29.66343272	    102.26850264	     84.03421224
      1.58333330	     -0.66686639	      1.47325452	      6.05029117	      0.00589874	      1.30248224	     -0.07327659	     -4.04890068	      0.86253747	     -0.62671505	      0.00000000	      5.80405430	     -6.13717078	      0.00000000	     -2.75411450	      1.79799932	      4.94999516	      3.64510574	      4.10899482	     -3.00157798	      0.00000000	     -2.55700139	      0.09146998	     -0.69333729	     14.13938570	    -11.63295506	     34.10449491	    121.86777001	     85.15968481	     14.30150494	    -10.46232598	     32.11616663	    105.10793677	     84.01263335
      1.60000000	     -0.76134336	      1.47732052	      5.97812207	      0.00412742	      1.30626674	     -0.07191942	     -3.87003743	      0.88977309	     -0.69916138	      0.00000000	      5.75262420	     -6.17496898	      0.00000000	     -2.58743315	      1.77959122	      4.71343131	      3.73822747	      3.92631144	     -3.26164842	      0.00000000	     -2.51769117	      0.02243323	     -0.71470324	     16.19686330	    -11.22513254	     35.79669605	    121.98278455	     85.60618948	     16.46445883	     -9.87109477	     34.05753552	    106.62883788	     83.94004008
      1.61666670	     -0.91923618	      1.44442635	      5.89654574	      0.00649646	      1.30453458	     -0.07161228	     -3.67853330	      0.93034528	     -0.80914074	      0.00000000	      5.72814554	     -6.16875960	      0.00000000	     -2.41575278	      1.72480431	      4.66456594	      3.77072675	      3.73790216	     -3.32052471	      0.00000000	     -2.26451356	      0.01078412	     -0.59502225	     17.86512034	    -10.92491819	     37.62860369	    122.89880170	     86.17682228	     18.13694127	     -9.31626664	     35.83201015	    108.46000543	     83.83015940
      1.63333330	     -1.07603535	      1.39566754	      5.75002854	      0.00485926	      1.30551267	     -0.07079054	     -3.46653365	      0.97474145	     -0.85933859	      0.00000000	      5.72516553	     -6.06596313	      0.00000000	     -2.16574444	      1.68605737	      4.52907325	      3.85232023	      3.64459079	     -3.43627387	      0.00000000	     -2.05125280	      0.09493172	     -0.38964481	     19.43047076	    -10.66349827	     39.20069045	    123.51375976	     86.79203568	     19.67982029	     -8.59459785	     37.27508332	    109.90284623	     83.69546212
      1.65000000	     -1.11730133	      1.39510140	      5.61790700	      0.00393697	      1.30178590	     -0.07033925	     -3.37905852	      0.97894875	     -0.82033447	      0.00000000	      5.90219945	     -6.03329323	      0.00000000	     -2.11361388	      1.68723485	      4.55579577	      3.80010667	      3.46459770	     -3.46506281	      0.00000000	     -1.92527916	      0.25949259	     -0.48162213	     21.38666588	    -10.17131299	     40.91424320	    123.67072477	     93.94801784	     20.11372363	     -8.34086756	     38.06793786	    112.19705987	     80.87117769
